<svg xmlns="http://www.w3.org/2000/svg" xmlns:xlink="http://www.w3.org/1999/xlink" version="1.1" width="287.05263152611224" height="266.7894748994188" style="enable-background:new 0 0 241 96;" xml:space="preserve"><rect id="backgroundrect" width="100%" height="100%" x="0" y="0" fill="none" stroke="none" style="" class="selected"/>
<style type="text/css">
	.st0{fill:#FFFFFF;}
	.st1{fill:#004A61;}
	.st2{fill:#B06E0E;}
	.st3{fill:#007DC3;}
	.st4{fill:#D18316;}
</style>










<g class="currentLayer" style=""><title>Layer 1</title><g id="svg_2" class="">
	<path id="XMLID_46_" class="st1" d="M280.1547960056958,25.581081426133824 c-7.997617553712645,5.5584638590460145 -15.99523510742529,11.580133039679197 -23.493001564030894,18.528212863486715 v186.2085392780415 c0,7.411285145394687 -3.9988087768563223,11.580133039679197 -13.495979621890088,11.580133039679197 H66.71837754098968 l-13.495979621890088,16.675391577138043 l-0.4998510971070403,0.463205321587168 c-0.9997021942140806,0.926410643174336 -1.9994043884281612,1.8528212863486717 -2.9991065826422436,2.7792319295230095 h193.94222567753158 c30.49091692352945,0 38.98838557434914,-15.748980933963708 38.98838557434914,-32.42437251110175 V37.161214465813025 C282.154200394124,32.99236657152852 281.654349297017,29.28672399883117 280.1547960056958,25.581081426133824 L280.1547960056958,25.581081426133824 z"/>
	<path id="XMLID_45_" class="st2" d="M7.735948082358934,217.3480845632213 L7.735948082358934,217.3480845632213 l22.49329936981681,-15.748980933963708 V36.23480382263869 c0,-7.411285145394687 3.9988087768563223,-11.580133039679197 13.495979621890088,-11.580133039679197 H234.6683461689552 c8.497468650819684,-6.484874502220349 16.994937301639368,-12.506543682853534 25.49240595245905,-17.60180222031238 C255.66209224745091,5.663252597885603 249.6638790821664,4.736841954711271 243.1658148197749,4.736841954711271 H43.72522707406585 C13.234310150536384,4.736841954711271 4.736841499716697,20.48582288867498 4.736841499716697,37.161214465813025 v183.42930734851848 C5.73654369393078,219.66411117115715 6.736245888144863,218.27449520639564 7.735948082358934,217.3480845632213 z"/>
	<path id="XMLID_44_" class="st3" d="M195.6799605946061,111.27406591975988 c9.497170845033763,19.45462350666105 5.498362068177443,43.07809490760662 -11.496575233461924,59.290281163157495 c-22.49329936981681,20.844239471422554 -58.4825783615237,20.844239471422554 -80.9758777313405,0 c-22.49329936981681,-20.844239471422554 -22.49329936981681,-54.195022625698634 0,-75.0392620971212 c18.494490592960492,-17.13859689872521 45.986300933847694,-19.91782882824822 67.97974920655747,-8.80090111015619 c3.4989576797492834,-4.168847894284511 6.997915359498562,-8.337695788569022 10.496873039247847,-12.043338361266365 c-28.491512535101297,-15.748980933963708 -65.48049372102227,-12.506543682853534 -89.97319747926724,10.190517074917695 c-26.49210814667313,24.549882044119897 -28.491512535101297,62.53271841426766 -6.498064262391524,89.3986270663234 L14.23401234475047,223.83295906544166 c-8.997319747926724,8.337695788569022 -8.997319747926724,21.30744479300972 0,29.181935259991576 c8.997319747926724,8.337695788569022 22.993150466923847,8.337695788569022 31.49061911774353,0 l52.98421629334626,-65.77515566537784 c28.99136363220833,20.38103414983539 69.97915359498565,18.528212863486715 96.47126174165878,-6.021669180633184 c24.492703758244975,-22.69706075777123 27.99166143799425,-57.900665198395984 10.496873039247847,-84.30336852886455 C202.17802485699758,102.00995948801652 198.6790671772483,106.6420127038882 195.6799605946061,111.27406591975988 z"/>
	<path id="XMLID_43_" class="st4" d="M159.19083050579212,158.05780340006382 c9.997021942140805,-25.939498008881397 26.49210814667313,-51.878996017762795 49.48525861359699,-78.74490466981854 C229.16998410077775,55.226222007712565 251.16343237348752,35.30839317946436 274.6564339375184,18.633001602326306 c-0.4998510971070403,-2.7792319295230095 -1.4995532913211218,-5.5584638590460145 -3.9988087768563223,-7.411285145394687 c-0.4998510971070403,0 -0.4998510971070403,0 -0.4998510971070403,0 c-21.993448272709774,13.432954326027868 -43.48704544831249,30.10834590316591 -63.4810893325941,50.02617473141414 c-22.993150466923847,22.69706075777123 -42.48734325409842,47.246942801891116 -58.4825783615237,74.11285145394686 l-4.998510971070402,-10.190517074917695 c-8.997319747926724,-18.99141818507388 -17.494788398746408,-28.255524616817237 -24.99255485535201,-28.255524616817237 c-5.498362068177443,0 -11.996426330568964,3.2424372511101773 -19.49419278717457,9.264106431743357 c5.498362068177443,0.463205321587168 10.496873039247847,3.7056425726973434 15.495384010318249,10.190517074917695 c4.498659873963362,6.484874502220349 10.496873039247847,17.13859689872521 17.494788398746408,32.88757783268892 l2.9991065826422436,7.411285145394687 c2.9991065826422436,6.948079823807518 4.498659873963362,11.580133039679197 5.498362068177443,14.822570290789374 c3.9988087768563223,-3.2424372511101773 7.997617553712645,-6.484874502220349 13.495979621890088,-9.264106431743357 L159.19083050579212,158.05780340006382 z"/>
</g></g></svg>