<?xml version="1.0" encoding="utf-8"?>
<!-- Generator: Adobe Illustrator 25.2.3, SVG Export Plug-In . SVG Version: 6.00 Build 0)  -->
<svg version="1.1" id="Layer_1" xmlns="http://www.w3.org/2000/svg" xmlns:xlink="http://www.w3.org/1999/xlink" x="0px" y="0px"
	 width="241px" height="96px" viewBox="0 0 241 96" style="enable-background:new 0 0 241 96;" xml:space="preserve">
<style type="text/css">
	.st0{fill:#FFFFFF;}
	.st1{fill:#004A61;}
	.st2{fill:#B06E0E;}
	.st3{fill:#007DC3;}
	.st4{fill:#D18316;}
</style>
<path class="st0" d="M48.8,55.5H6.7c-3.7,0-6.7-3-6.7-6.7V6.7C0,3,3,0,6.7,0h42.1c3.7,0,6.7,3,6.7,6.7v42.1
	C55.5,52.5,52.5,55.5,48.8,55.5z"/>
<path id="XMLID_61_" class="st1" d="M68.6,12l2.1-12H82l-2.1,12H68.6z M61,55.5l6.7-38.3H79l-6.7,38.3H61z"/>
<path id="XMLID_58_" class="st1" d="M83,30.6c1.6-9,6.4-14.1,15.4-14.1c3.1,0,7.1,0.5,9.6,1.1l2.8-16L122.3,0l-9.8,55.5h-8.9
	l-0.6-3.1c-3,1.7-8.3,3.8-12.5,3.8c-7.8,0-11.3-4.8-9.6-14.1L83,30.6z M106.2,27.2c-1.9-0.5-4.7-0.9-7.1-0.9c-3,0-4.4,1.8-4.8,4.3
	l-2,11.6c-0.5,2.7,0.3,4.3,3.3,4.3c2.6,0,5.9-1.6,7.8-3L106.2,27.2z"/>
<path id="XMLID_55_" class="st1" d="M132.8,40.3l-0.2,1.1c-0.8,4.4,0.7,5.6,5.9,5.6c3.5,0,8.4-0.6,11.9-1.7l0.2,8.5
	c-3.7,1.3-9.5,2.4-14.8,2.4c-12.4,0-16-6.1-14.4-15.6l1.6-9c1.5-8.3,6.4-15.3,19.1-15.3c12.7,0,14.2,7.5,12.7,15.9l-1.4,8H132.8z
	 M144.5,30.2c0.5-2.7,0.1-4.9-3.9-4.9c-3.9,0-5.6,2.2-6,4.9l-0.3,1.7h9.9L144.5,30.2z"/>
<path id="XMLID_52_" class="st1" d="M164.6,12l2.1-12H178l-2.1,12H164.6z M157,55.5l6.7-38.3h11.3l-6.7,38.3H157z"/>
<path id="XMLID_50_" class="st1" d="M188.1,40.9c-0.7,3.9,0.6,5.7,5.2,5.7c2.9,0,5.2-0.3,8-0.9l-0.2,9.4c-4,0.9-6.8,1.2-9.5,1.2
	c-12.4,0-16.7-4.6-14.8-15.6l1.5-8.7c1.9-10.9,7.9-15.6,20.3-15.6c2.7,0,5.4,0.3,9.1,1.2l-3.1,9.4c-2.3-0.5-5.5-0.9-7.7-0.9
	c-4.6,0-6.5,1.8-7.2,5.7L188.1,40.9z"/>
<path id="XMLID_47_" class="st1" d="M218.5,40.3l-0.2,1.1c-0.8,4.4,0.7,5.6,5.9,5.6c3.5,0,8.4-0.6,11.9-1.7l0.2,8.5
	c-3.7,1.3-9.5,2.4-14.8,2.4c-12.4,0-16-6.1-14.4-15.6l1.6-9c1.5-8.3,6.4-15.3,19.1-15.3c12.7,0,14.1,7.5,12.7,15.9l-1.4,8H218.5z
	 M230.2,30.2c0.5-2.7,0.1-4.9-3.9-4.9c-3.9,0-5.6,2.2-6,4.9l-0.3,1.7h9.9L230.2,30.2z"/>
<g>
	<path id="XMLID_46_" class="st1" d="M55.1,4.5c-1.6,1.2-3.2,2.5-4.7,4v40.2c0,1.6-0.8,2.5-2.7,2.5H12.4l-2.7,3.6l-0.1,0.1
		c-0.2,0.2-0.4,0.4-0.6,0.6h38.8c6.1,0,7.8-3.4,7.8-7V7C55.5,6.1,55.4,5.3,55.1,4.5L55.1,4.5z"/>
	<path id="XMLID_45_" class="st2" d="M0.6,45.9L0.6,45.9l4.5-3.4V6.8c0-1.6,0.8-2.5,2.7-2.5H46c1.7-1.4,3.4-2.7,5.1-3.8
		C50.2,0.2,49,0,47.7,0H7.8C1.7,0,0,3.4,0,7v39.6C0.2,46.4,0.4,46.1,0.6,45.9z"/>
	<path id="XMLID_44_" class="st3" d="M38.2,23c1.9,4.2,1.1,9.3-2.3,12.8c-4.5,4.5-11.7,4.5-16.2,0c-4.5-4.5-4.5-11.7,0-16.2
		c3.7-3.7,9.2-4.3,13.6-1.9c0.7-0.9,1.4-1.8,2.1-2.6c-5.7-3.4-13.1-2.7-18,2.2c-5.3,5.3-5.7,13.5-1.3,19.3L1.9,47.3
		c-1.8,1.8-1.8,4.6,0,6.3c1.8,1.8,4.6,1.8,6.3,0l10.6-14.2c5.8,4.4,14,4,19.3-1.3c4.9-4.9,5.6-12.5,2.1-18.2
		C39.5,21,38.8,22,38.2,23z"/>
	<path id="XMLID_43_" class="st4" d="M30.9,33.1c2-5.6,5.3-11.2,9.9-17C44.9,10.9,49.3,6.6,54,3c-0.1-0.6-0.3-1.2-0.8-1.6
		c-0.1,0-0.1,0-0.1,0c-4.4,2.9-8.7,6.5-12.7,10.8c-4.6,4.9-8.5,10.2-11.7,16l-1-2.2c-1.8-4.1-3.5-6.1-5-6.1c-1.1,0-2.4,0.7-3.9,2
		c1.1,0.1,2.1,0.8,3.1,2.2c0.9,1.4,2.1,3.7,3.5,7.1l0.6,1.6c0.6,1.5,0.9,2.5,1.1,3.2c0.8-0.7,1.6-1.4,2.7-2L30.9,33.1z"/>
</g>
<g>
	<path class="st3" d="M0.9,76.7H0V66h0.9V76.7z"/>
	<path class="st3" d="M8.7,76.7v-6.3c0-0.6-0.3-0.8-0.9-0.8c-0.6,0-2,0.4-3,0.9v6.2H3.9v-7.8h0.8l0.1,0.7c0.8-0.4,2.2-0.9,3.2-0.9
		c1.2,0,1.7,0.7,1.7,1.8v6.2H8.7z"/>
	<path class="st3" d="M14.4,76.8c-0.8,0-1.7-0.2-2.3-0.4l0.2-0.8c0.7,0.2,1.5,0.3,2.1,0.3c1.4,0,1.7-0.3,1.7-1.3
		c0-1.1,0-1.2-1.8-1.7c-2-0.5-2.1-0.9-2.1-2.4c0-1.3,0.6-2,2.6-2c0.7,0,1.6,0.1,2.2,0.3l-0.1,0.8c-0.6-0.1-1.5-0.2-2.2-0.2
		c-1.4,0-1.6,0.4-1.6,1.2c0,1.1,0.1,1.2,1.5,1.6c2.3,0.6,2.4,0.9,2.4,2.4C17,76.1,16.4,76.8,14.4,76.8z"/>
	<path class="st3" d="M23.4,76.5c-0.4,0.2-1.1,0.3-1.6,0.3c-1.2,0-1.8-0.4-1.8-1.7v-5.5h-1.5v-0.8H20V67l0.9-0.1v2h2.4l-0.1,0.8
		h-2.3V75c0,0.7,0.1,1,0.9,1c0.4,0,0.9-0.1,1.4-0.2L23.4,76.5z"/>
	<path class="st3" d="M25.3,67.4v-1.7h0.9v1.7H25.3z M25.3,76.7v-7.8h0.9v7.8H25.3z"/>
	<path class="st3" d="M33.1,76.5c-0.5,0.2-1.1,0.3-1.6,0.3c-1.2,0-1.8-0.4-1.8-1.7v-5.5h-1.5v-0.8h1.5V67l0.9-0.1v2H33l-0.1,0.8
		h-2.3V75c0,0.7,0.1,1,0.9,1c0.4,0,0.9-0.1,1.4-0.2L33.1,76.5z"/>
	<path class="st3" d="M35.9,68.8v6.3c0,0.6,0.3,0.8,0.9,0.8c0.6,0,2-0.4,3-0.9v-6.2h0.9v7.8h-0.8L39.8,76c-0.8,0.4-2.2,0.9-3.2,0.9
		c-1.2,0-1.7-0.7-1.7-1.8v-6.2H35.9z"/>
	<path class="st3" d="M47.5,76.5c-0.5,0.2-1.1,0.3-1.6,0.3c-1.2,0-1.8-0.4-1.8-1.7v-5.5h-1.5v-0.8h1.5V67l0.9-0.1v2h2.4l-0.1,0.8H45
		V75c0,0.7,0.1,1,0.9,1c0.4,0,0.9-0.1,1.4-0.2L47.5,76.5z"/>
	<path class="st3" d="M52.1,76.8c-2.2,0-3-1.2-3-2.8v-2.5c0-1.6,0.8-2.8,3-2.8c2.2,0,3,1.2,3,2.8V74C55.2,75.6,54.3,76.8,52.1,76.8z
		 M54.2,71.5c0-1.3-0.6-2-2.1-2c-1.5,0-2.1,0.7-2.1,2V74c0,1.3,0.6,2,2.1,2c1.5,0,2.1-0.7,2.1-2V71.5z"/>
	<path class="st3" d="M64.7,66c2.6,0,3.3,1.3,3.3,3.2v4.4c0,1.8-0.7,3.2-3.3,3.2h-3.5V66H64.7z M62.1,75.8h2.6
		c1.8,0,2.4-0.7,2.4-2.3v-4.5c0-1.5-0.6-2.3-2.4-2.3h-2.6V75.8z"/>
	<path class="st3" d="M73.3,76.8c-2.2,0-3-1.2-3-2.8v-2.5c0-1.6,0.8-2.8,3-2.8c2.2,0,3,1.2,3,2.8V74C76.3,75.6,75.5,76.8,73.3,76.8z
		 M75.4,71.5c0-1.3-0.6-2-2.1-2c-1.5,0-2.1,0.7-2.1,2V74c0,1.3,0.6,2,2.1,2c1.5,0,2.1-0.7,2.1-2V71.5z"/>
	<path class="st3" d="M88.3,76.7v-6.3c0-0.6-0.3-0.8-0.9-0.8c-0.7,0-2,0.4-3,0.9v6.2h-0.9v-6.3c0-0.6-0.3-0.8-0.9-0.8
		c-0.6,0-2,0.4-3,0.9v6.2h-0.9v-7.8h0.8l0.1,0.7c0.8-0.4,2.2-0.9,3.2-0.9c0.8,0,1.3,0.3,1.5,0.9c0.9-0.4,2.3-0.9,3.3-0.9
		c1.2,0,1.7,0.7,1.7,1.8v6.2H88.3z"/>
	<path class="st3" d="M91.9,67.4v-1.7h0.9v1.7H91.9z M91.9,76.7v-7.8h0.9v7.8H91.9z"/>
	<path class="st3" d="M100.4,76.7v-6.3c0-0.6-0.3-0.8-0.9-0.8c-0.6,0-2,0.4-3,0.9v6.2h-0.9v-7.8h0.8l0.1,0.7
		c0.8-0.4,2.2-0.9,3.2-0.9c1.2,0,1.7,0.7,1.7,1.8v6.2H100.4z"/>
	<path class="st3" d="M104,67.4v-1.7h0.9v1.7H104z M104,76.7v-7.8h0.9v7.8H104z"/>
	<path class="st3" d="M108.2,74.2c0,1.4,0.6,1.8,2,1.8c0.5,0,1,0,1.7-0.2l0.1,0.8c-0.5,0.1-1.3,0.2-1.8,0.2c-2.2,0-3-1-3-2.7v-2.7
		c0-1.7,0.8-2.7,3-2.7c0.5,0,1.2,0.1,1.8,0.2l-0.1,0.8c-0.7-0.1-1.2-0.2-1.7-0.2c-1.5,0-2,0.4-2,1.8V74.2z"/>
	<path class="st3" d="M119.4,76.7h-0.8l-0.1-0.6c-0.8,0.5-1.6,0.8-2.6,0.8c-1.4,0-2-0.8-2-2.2c0-1.7,0.8-2.2,2.3-2.2h2.3v-1.5
		c0-1.1-0.6-1.4-1.8-1.4c-0.8,0-1.6,0.1-2.3,0.3l-0.1-0.8c0.6-0.2,1.6-0.3,2.4-0.3c2,0,2.8,0.8,2.8,2.3V76.7z M118.5,73.3h-2.3
		c-1.1,0-1.4,0.3-1.4,1.3c0,0.9,0.2,1.3,1.3,1.3c0.8,0,1.7-0.3,2.4-0.8V73.3z"/>
	<path class="st3" d="M126.8,76.7v-6.3c0-0.6-0.3-0.8-0.9-0.8c-0.6,0-2,0.4-3,0.9v6.2H122v-7.8h0.8l0.1,0.7c0.8-0.4,2.2-0.9,3.2-0.9
		c1.2,0,1.7,0.7,1.7,1.8v6.2H126.8z"/>
	<path class="st3" d="M133.1,76.8c-2.2,0-3-1.2-3-2.8v-2.5c0-1.6,0.8-2.8,3-2.8c2.2,0,3,1.2,3,2.8V74
		C136.1,75.6,135.3,76.8,133.1,76.8z M135.2,71.5c0-1.3-0.6-2-2.1-2c-1.5,0-2.1,0.7-2.1,2V74c0,1.3,0.6,2,2.1,2c1.5,0,2.1-0.7,2.1-2
		V71.5z"/>
	<path class="st3" d="M141.8,71.1c0-1.4,0.6-2.4,2.4-2.4c0.8,0,1.5,0.1,2.4,0.3v-3.3l0.9-0.1v11.1h-0.9l0-0.7
		c-0.8,0.6-1.8,0.9-2.6,0.9c-1.5,0-2.2-0.8-2.2-2.2V71.1z M146.7,69.8c-0.9-0.2-1.7-0.3-2.4-0.3c-1,0-1.4,0.5-1.4,1.6v3.6
		c0,0.9,0.3,1.3,1.3,1.3c1,0,1.8-0.4,2.5-1V69.8z"/>
	<path class="st3" d="M152.9,76c0.8,0,1.7-0.2,2.5-0.4l0.2,0.8c-0.7,0.3-1.8,0.4-2.7,0.4c-2.2,0-2.9-1.1-2.9-2.8v-2.5
		c0-1.6,0.7-2.8,2.9-2.8c2.2,0,2.8,1.2,2.8,2.8V73h-4.8v1C150.9,75.4,151.4,76,152.9,76z M150.9,72.2h3.9v-0.7c0-1.3-0.5-2-1.9-2
		c-1.5,0-2,0.7-2,2V72.2z"/>
	<path class="st3" d="M161.8,66h6v0.9h-5.1v4h4.7v0.9h-4.7v4.2h5.1v0.9h-6V66z"/>
	<path class="st3" d="M173.3,76.7h-1.4l-2.6-7.8h0.9l2.4,7.2l2.4-7.2h0.9L173.3,76.7z"/>
	<path class="st3" d="M182.8,76.7H182l-0.1-0.6c-0.8,0.5-1.6,0.8-2.6,0.8c-1.4,0-2-0.8-2-2.2c0-1.7,0.8-2.2,2.3-2.2h2.3v-1.5
		c0-1.1-0.6-1.4-1.8-1.4c-0.8,0-1.6,0.1-2.3,0.3l-0.1-0.8c0.6-0.2,1.6-0.3,2.4-0.3c2,0,2.8,0.8,2.8,2.3V76.7z M181.9,73.3h-2.3
		c-1.1,0-1.4,0.3-1.4,1.3c0,0.9,0.2,1.3,1.3,1.3c0.8,0,1.7-0.3,2.4-0.8V73.3z"/>
	<path class="st3" d="M185.4,76.7v-11l0.9-0.1v11.1H185.4z"/>
	<path class="st3" d="M190,68.8v6.3c0,0.6,0.3,0.8,0.9,0.8c0.6,0,2-0.4,3-0.9v-6.2h0.9v7.8H194l-0.1-0.7c-0.8,0.4-2.2,0.9-3.2,0.9
		c-1.2,0-1.7-0.7-1.7-1.8v-6.2H190z"/>
	<path class="st3" d="M202.8,76.7H202l-0.1-0.6c-0.8,0.5-1.6,0.8-2.6,0.8c-1.4,0-2-0.8-2-2.2c0-1.7,0.8-2.2,2.3-2.2h2.3v-1.5
		c0-1.1-0.6-1.4-1.8-1.4c-0.8,0-1.6,0.1-2.3,0.3l-0.1-0.8c0.6-0.2,1.6-0.3,2.4-0.3c2,0,2.8,0.8,2.8,2.3V76.7z M201.9,73.3h-2.3
		c-1.1,0-1.4,0.3-1.4,1.3c0,0.9,0.2,1.3,1.3,1.3c0.8,0,1.7-0.3,2.4-0.8V73.3z"/>
	<path class="st3" d="M205.9,74.2c0,1.4,0.6,1.8,2,1.8c0.5,0,1,0,1.7-0.2l0.1,0.8c-0.5,0.1-1.3,0.2-1.8,0.2c-2.2,0-3-1-3-2.7v-2.7
		c0-1.7,0.8-2.7,3-2.7c0.5,0,1.2,0.1,1.8,0.2l-0.1,0.8c-0.7-0.1-1.2-0.2-1.7-0.2c-1.5,0-2,0.4-2,1.8V74.2z"/>
	<path class="st3" d="M211.9,67.4v-1.7h0.9v1.7H211.9z M211.9,76.7v-7.8h0.9v7.8H211.9z"/>
	<path class="st3" d="M218.2,76.8c-2.2,0-3-1.2-3-2.8v-2.5c0-1.6,0.8-2.8,3-2.8c2.2,0,3,1.2,3,2.8V74
		C221.3,75.6,220.4,76.8,218.2,76.8z M220.3,71.5c0-1.3-0.6-2-2.1-2c-1.5,0-2.1,0.7-2.1,2V74c0,1.3,0.6,2,2.1,2c1.5,0,2.1-0.7,2.1-2
		V71.5z M217.4,67.2c0.6-0.4,1.4-0.9,2.1-1.4l0.5,0.7c-0.7,0.5-1.5,1-2.1,1.3L217.4,67.2z"/>
	<path class="st3" d="M228.4,76.7v-6.3c0-0.6-0.3-0.8-0.9-0.8c-0.6,0-2,0.4-3,0.9v6.2h-0.9v-7.8h0.8l0.1,0.7
		c0.8-0.4,2.2-0.9,3.2-0.9c1.2,0,1.7,0.7,1.7,1.8v6.2H228.4z"/>
	<path class="st3" d="M238.2,76c0.8,0,1.7-0.2,2.5-0.4l0.2,0.8c-0.7,0.3-1.8,0.4-2.7,0.4c-2.2,0-2.9-1.1-2.9-2.8v-2.5
		c0-1.6,0.7-2.8,2.9-2.8s2.8,1.2,2.8,2.8V73h-4.8v1C236.2,75.4,236.6,76,238.2,76z M236.2,72.2h3.9v-0.7c0-1.3-0.5-2-1.9-2
		s-2,0.7-2,2V72.2z"/>
</g>
<g>
	<path class="st3" d="M0.9,92.7H0V82h0.9V92.7z"/>
	<path class="st3" d="M8.7,92.7v-6.3c0-0.6-0.3-0.8-0.9-0.8c-0.6,0-2,0.4-3,0.9v6.2H4v-7.8h0.8l0.1,0.7c0.8-0.4,2.2-0.9,3.2-0.9
		c1.2,0,1.7,0.7,1.7,1.8v6.2H8.7z"/>
	<path class="st3" d="M15.4,92.7H14l-2.6-7.8h0.9l2.4,7.2l2.4-7.2H18L15.4,92.7z"/>
	<path class="st3" d="M22.3,92c0.8,0,1.7-0.2,2.5-0.4l0.2,0.8c-0.7,0.3-1.8,0.4-2.7,0.4c-2.2,0-2.9-1.1-2.9-2.8v-2.5
		c0-1.6,0.7-2.8,2.9-2.8s2.8,1.2,2.8,2.8V89h-4.8v1C20.3,91.4,20.8,92,22.3,92z M20.3,88.2h3.9v-0.7c0-1.3-0.5-2-1.9-2s-2,0.7-2,2
		V88.2z"/>
	<path class="st3" d="M29.6,92.8c-0.8,0-1.7-0.2-2.3-0.4l0.2-0.8c0.7,0.2,1.5,0.3,2.1,0.3c1.4,0,1.7-0.3,1.7-1.3
		c0-1.1,0-1.2-1.8-1.7c-2-0.5-2.1-0.9-2.1-2.4c0-1.3,0.6-2,2.6-2c0.7,0,1.6,0.1,2.2,0.3L32,85.8c-0.6-0.1-1.5-0.2-2.2-0.2
		c-1.4,0-1.6,0.4-1.6,1.2c0,1.1,0.1,1.2,1.5,1.6c2.3,0.6,2.4,0.9,2.4,2.4C32.2,92.1,31.7,92.8,29.6,92.8z"/>
	<path class="st3" d="M38.7,92.5c-0.5,0.2-1.1,0.3-1.6,0.3c-1.2,0-1.8-0.4-1.8-1.7v-5.5h-1.5v-0.8h1.5V83l0.9-0.1v2h2.4l-0.1,0.8
		h-2.3v5.4c0,0.7,0.1,1,0.9,1c0.4,0,0.9-0.1,1.4-0.2L38.7,92.5z"/>
	<path class="st3" d="M40.7,83.4v-1.7h0.9v1.7H40.7z M40.7,92.7v-7.8h0.9v7.8H40.7z"/>
	<path class="st3" d="M47.2,90.3c-0.4,0-0.7,0-1-0.1c-0.4,0.4-0.6,0.7-0.6,1c0,0.3,0.2,0.5,0.7,0.6c1,0.1,1.2,0.1,2.2,0.2
		c1.4,0.1,1.9,0.8,1.9,1.9c0,1.6-0.8,2.2-3.3,2.2c-0.7,0-1.9-0.1-2.7-0.4l0.1-0.7c0.8,0.2,1.8,0.3,2.6,0.3c2.1,0,2.4-0.4,2.4-1.3
		c0-0.8-0.3-1.1-1.3-1.1c-1-0.1-1.1-0.1-2.1-0.1c-1.2-0.1-1.5-0.7-1.5-1.4c0-0.4,0.2-0.9,0.7-1.3c-0.8-0.4-1.2-1.2-1.2-2.3v-0.1
		c0-1.8,0.8-2.7,3-2.7c0.5,0,0.9,0,1.3,0.2h2.2v0.7l-1,0.1c0.4,0.4,0.5,1.1,0.5,1.8v0.1C50.2,89.3,49.2,90.3,47.2,90.3z M47.2,85.5
		c-1.6,0-2.1,0.5-2.1,1.9v0.2c0,1.5,0.7,1.9,2.1,1.9c1.4,0,2.1-0.5,2.1-1.9v-0.2C49.3,86,48.7,85.5,47.2,85.5z"/>
	<path class="st3" d="M58.1,92.7h-0.8l-0.1-0.6c-0.8,0.5-1.6,0.8-2.6,0.8c-1.4,0-2-0.8-2-2.2c0-1.7,0.8-2.2,2.3-2.2h2.3V87
		c0-1.1-0.6-1.4-1.8-1.4c-0.8,0-1.6,0.1-2.3,0.3L52.8,85c0.6-0.2,1.6-0.3,2.4-0.3c2,0,2.8,0.8,2.8,2.3V92.7z M57.1,89.3h-2.3
		c-1.1,0-1.4,0.3-1.4,1.3c0,0.9,0.2,1.3,1.3,1.3c0.8,0,1.7-0.3,2.4-0.8V89.3z"/>
	<path class="st3" d="M61.2,90.2c0,1.4,0.6,1.8,2,1.8c0.5,0,1,0,1.7-0.2l0.1,0.8c-0.5,0.1-1.3,0.2-1.8,0.2c-2.2,0-3-1-3-2.7v-2.7
		c0-1.7,0.8-2.7,3-2.7c0.5,0,1.2,0.1,1.8,0.2l-0.1,0.8c-0.7-0.1-1.2-0.2-1.7-0.2c-1.5,0-2,0.4-2,1.8V90.2z"/>
	<path class="st3" d="M67.3,83.4v-1.7h0.9v1.7H67.3z M67.3,92.7v-7.8h0.9v7.8H67.3z"/>
	<path class="st3" d="M73.7,92.8c-2.2,0-3-1.2-3-2.8v-2.5c0-1.6,0.8-2.8,3-2.8c2.2,0,3,1.2,3,2.8V90C76.7,91.6,75.9,92.8,73.7,92.8z
		 M75.8,87.5c0-1.3-0.6-2-2.1-2c-1.5,0-2.1,0.7-2.1,2V90c0,1.3,0.6,2,2.1,2c1.5,0,2.1-0.7,2.1-2V87.5z M72.9,83.2
		c0.6-0.4,1.4-0.9,2.1-1.4l0.5,0.7c-0.7,0.5-1.5,1-2.1,1.3L72.9,83.2z"/>
	<path class="st3" d="M84,92.7v-6.3c0-0.6-0.3-0.8-0.9-0.8c-0.6,0-2,0.4-3,0.9v6.2h-0.9v-7.8H80l0.1,0.7c0.8-0.4,2.2-0.9,3.2-0.9
		c1.2,0,1.7,0.7,1.7,1.8v6.2H84z"/>
	<path class="st3" d="M91.1,87.1c0-1.4,0.6-2.4,2.4-2.4c0.8,0,1.5,0.1,2.4,0.3v-3.3l0.9-0.1v11.1H96l0-0.7c-0.8,0.6-1.8,0.9-2.6,0.9
		c-1.5,0-2.2-0.8-2.2-2.2V87.1z M95.9,85.8c-0.9-0.2-1.7-0.3-2.4-0.3c-1,0-1.4,0.5-1.4,1.6v3.6c0,0.9,0.3,1.3,1.3,1.3
		c1,0,1.8-0.4,2.5-1V85.8z"/>
	<path class="st3" d="M102.2,92c0.8,0,1.7-0.2,2.5-0.4l0.2,0.8c-0.7,0.3-1.8,0.4-2.7,0.4c-2.2,0-2.9-1.1-2.9-2.8v-2.5
		c0-1.6,0.7-2.8,2.9-2.8s2.8,1.2,2.8,2.8V89h-4.8v1C100.2,91.4,100.7,92,102.2,92z M100.2,88.2h3.9v-0.7c0-1.3-0.5-2-1.9-2
		s-2,0.7-2,2V88.2z"/>
	<path class="st3" d="M111.1,92.7v-11l0.9-0.1v11.1H111.1z"/>
	<path class="st3" d="M120.1,92.7h-0.8l-0.1-0.6c-0.8,0.5-1.6,0.8-2.6,0.8c-1.4,0-2-0.8-2-2.2c0-1.7,0.8-2.2,2.3-2.2h2.3V87
		c0-1.1-0.6-1.4-1.8-1.4c-0.8,0-1.6,0.1-2.3,0.3l-0.1-0.8c0.6-0.2,1.6-0.3,2.4-0.3c2,0,2.8,0.8,2.8,2.3V92.7z M119.2,89.3h-2.3
		c-1.1,0-1.4,0.3-1.4,1.3c0,0.9,0.2,1.3,1.3,1.3c0.8,0,1.7-0.3,2.4-0.8V89.3z"/>
	<path class="st3" d="M127.2,89.7c0,1.7,0.7,2.3,2.7,2.3c0.7,0,1.7-0.1,2.4-0.2l0.1,0.8c-0.8,0.2-1.8,0.2-2.6,0.2
		c-2.6,0-3.5-1.1-3.5-3.1v-4.8c0-2,1-3.1,3.5-3.1c0.8,0,1.8,0.1,2.6,0.2l-0.1,0.8c-0.7-0.1-1.7-0.2-2.4-0.2c-1.9,0-2.7,0.6-2.7,2.3
		V89.7z"/>
	<path class="st3" d="M140,92.7h-0.8l-0.1-0.6c-0.8,0.5-1.6,0.8-2.6,0.8c-1.4,0-2-0.8-2-2.2c0-1.7,0.8-2.2,2.3-2.2h2.3V87
		c0-1.1-0.6-1.4-1.8-1.4c-0.8,0-1.6,0.1-2.3,0.3l-0.1-0.8c0.6-0.2,1.6-0.3,2.4-0.3c2,0,2.8,0.8,2.8,2.3V92.7z M139,89.3h-2.3
		c-1.1,0-1.4,0.3-1.4,1.3c0,0.9,0.2,1.3,1.3,1.3c0.8,0,1.7-0.3,2.4-0.8V89.3z"/>
	<path class="st3" d="M142.7,92.7v-11l0.9-0.1v11.1H142.7z"/>
	<path class="st3" d="M146.4,83.4v-1.7h0.9v1.7H146.4z M146.4,92.7v-7.8h0.9v7.8H146.4z"/>
	<path class="st3" d="M150,87.1c0-1.4,0.6-2.4,2.4-2.4c0.8,0,1.5,0.1,2.4,0.3v-3.3l0.9-0.1v11.1h-0.9l0-0.7
		c-0.8,0.6-1.8,0.9-2.6,0.9c-1.5,0-2.2-0.8-2.2-2.2V87.1z M154.8,85.8c-0.9-0.2-1.7-0.3-2.4-0.3c-1,0-1.4,0.5-1.4,1.6v3.6
		c0,0.9,0.3,1.3,1.3,1.3c1,0,1.8-0.4,2.5-1V85.8z"/>
	<path class="st3" d="M163.8,92.7H163l-0.1-0.6c-0.8,0.5-1.6,0.8-2.6,0.8c-1.4,0-2-0.8-2-2.2c0-1.7,0.8-2.2,2.3-2.2h2.3V87
		c0-1.1-0.6-1.4-1.8-1.4c-0.8,0-1.6,0.1-2.3,0.3l-0.1-0.8c0.6-0.2,1.6-0.3,2.4-0.3c2,0,2.8,0.8,2.8,2.3V92.7z M162.8,89.3h-2.3
		c-1.1,0-1.4,0.3-1.4,1.3c0,0.9,0.2,1.3,1.3,1.3c0.8,0,1.7-0.3,2.4-0.8V89.3z"/>
	<path class="st3" d="M166.2,87.1c0-1.4,0.6-2.4,2.4-2.4c0.8,0,1.5,0.1,2.4,0.3v-3.3l0.9-0.1v11.1h-0.9l0-0.7
		c-0.8,0.6-1.8,0.9-2.6,0.9c-1.5,0-2.2-0.8-2.2-2.2V87.1z M171,85.8c-0.9-0.2-1.7-0.3-2.4-0.3c-1,0-1.4,0.5-1.4,1.6v3.6
		c0,0.9,0.3,1.3,1.3,1.3c1,0,1.8-0.4,2.5-1V85.8z"/>
	<path class="st3" d="M178.5,82h6v0.9h-5.1v4h4.7v0.9h-4.7v4.2h5.1v0.9h-6V82z"/>
	<path class="st3" d="M186.9,87.1c0-1.4,0.6-2.4,2.4-2.4c0.8,0,1.5,0.1,2.4,0.3v-3.3l0.9-0.1v11.1h-0.9l0-0.7
		c-0.8,0.6-1.8,0.9-2.6,0.9c-1.5,0-2.2-0.8-2.2-2.2V87.1z M191.8,85.8c-0.9-0.2-1.7-0.3-2.4-0.3c-1,0-1.4,0.5-1.4,1.6v3.6
		c0,0.9,0.3,1.3,1.3,1.3c1,0,1.8-0.4,2.5-1V85.8z"/>
	<path class="st3" d="M196.4,84.9v6.3c0,0.6,0.3,0.8,0.9,0.8c0.6,0,2-0.4,3-0.9v-6.2h0.9v7.8h-0.8l-0.1-0.7
		c-0.8,0.4-2.2,0.9-3.2,0.9c-1.2,0-1.7-0.7-1.7-1.8v-6.2H196.4z"/>
	<path class="st3" d="M204.5,90.2c0,1.4,0.6,1.8,2,1.8c0.5,0,1,0,1.7-0.2l0.1,0.8c-0.5,0.1-1.3,0.2-1.8,0.2c-2.2,0-3-1-3-2.7v-2.7
		c0-1.7,0.8-2.7,3-2.7c0.5,0,1.2,0.1,1.8,0.2l-0.1,0.8c-0.7-0.1-1.2-0.2-1.7-0.2c-1.5,0-2,0.4-2,1.8V90.2z"/>
	<path class="st3" d="M215.8,92.7H215l-0.1-0.6c-0.8,0.5-1.6,0.8-2.6,0.8c-1.4,0-2-0.8-2-2.2c0-1.7,0.8-2.2,2.3-2.2h2.3V87
		c0-1.1-0.6-1.4-1.8-1.4c-0.8,0-1.6,0.1-2.3,0.3l-0.1-0.8c0.6-0.2,1.6-0.3,2.4-0.3c2,0,2.8,0.8,2.8,2.3V92.7z M214.8,89.3h-2.3
		c-1.1,0-1.4,0.3-1.4,1.3c0,0.9,0.2,1.3,1.3,1.3c0.8,0,1.7-0.3,2.4-0.8V89.3z"/>
	<path class="st3" d="M222.5,92.5c-0.5,0.2-1.1,0.3-1.6,0.3c-1.2,0-1.8-0.4-1.8-1.7v-5.5h-1.5v-0.8h1.5V83l0.9-0.1v2h2.4l-0.1,0.8
		H220v5.4c0,0.7,0.1,1,0.9,1c0.4,0,0.9-0.1,1.4-0.2L222.5,92.5z"/>
	<path class="st3" d="M224.5,83.4v-1.7h0.9v1.7H224.5z M224.5,92.7v-7.8h0.9v7.8H224.5z"/>
	<path class="st3" d="M231.3,92.7h-1.4l-2.6-7.8h0.9l2.4,7.2l2.4-7.2h0.9L231.3,92.7z"/>
	<path class="st3" d="M240.8,92.7H240l-0.1-0.6c-0.8,0.5-1.6,0.8-2.6,0.8c-1.4,0-2-0.8-2-2.2c0-1.7,0.8-2.2,2.3-2.2h2.3V87
		c0-1.1-0.6-1.4-1.8-1.4c-0.8,0-1.6,0.1-2.3,0.3l-0.1-0.8c0.6-0.2,1.6-0.3,2.4-0.3c2,0,2.8,0.8,2.8,2.3V92.7z M239.9,89.3h-2.3
		c-1.1,0-1.4,0.3-1.4,1.3c0,0.9,0.2,1.3,1.3,1.3c0.8,0,1.7-0.3,2.4-0.8V89.3z"/>
</g>
</svg>
